<mxfile host="Electron" modified="2024-02-05T11:23:35.343Z" agent="Mozilla/5.0 (Windows NT 10.0; Win64; x64) AppleWebKit/537.36 (KHTML, like Gecko) draw.io/22.1.2 Chrome/114.0.5735.289 Electron/25.9.4 Safari/537.36" etag="OFIlIZewjjdZfxDinrzq" version="22.1.2" type="device">
  <diagram name="Страница — 1" id="4YfDmYqlP6Wcld6QHge-">
    <mxGraphModel dx="1480" dy="870" grid="1" gridSize="10" guides="1" tooltips="1" connect="1" arrows="1" fold="1" page="1" pageScale="1" pageWidth="827" pageHeight="1169" math="0" shadow="0">
      <root>
        <mxCell id="0" />
        <mxCell id="1" parent="0" />
        <mxCell id="Dy1CFo1pVVXyaczF-EVS-2" style="edgeStyle=orthogonalEdgeStyle;rounded=0;orthogonalLoop=1;jettySize=auto;html=1;exitX=0.5;exitY=1;exitDx=0;exitDy=0;" parent="1" source="Dy1CFo1pVVXyaczF-EVS-1" edge="1">
          <mxGeometry relative="1" as="geometry">
            <mxPoint x="360" y="560" as="targetPoint" />
          </mxGeometry>
        </mxCell>
        <mxCell id="Dy1CFo1pVVXyaczF-EVS-1" value="&lt;font style=&quot;font-size: 24px;&quot;&gt;начало&lt;/font&gt;" style="ellipse;whiteSpace=wrap;html=1;fontFamily=Times New Roman;fontSize=24;" parent="1" vertex="1">
          <mxGeometry x="300" y="440" width="120" height="80" as="geometry" />
        </mxCell>
        <mxCell id="Dy1CFo1pVVXyaczF-EVS-6" style="edgeStyle=orthogonalEdgeStyle;rounded=0;orthogonalLoop=1;jettySize=auto;html=1;exitX=0.5;exitY=1;exitDx=0;exitDy=0;fontFamily=Times New Roman;fontSize=24;fontColor=default;" parent="1" source="Dy1CFo1pVVXyaczF-EVS-4" edge="1">
          <mxGeometry relative="1" as="geometry">
            <mxPoint x="360" y="680" as="targetPoint" />
          </mxGeometry>
        </mxCell>
        <mxCell id="Dy1CFo1pVVXyaczF-EVS-4" value="using namespace std;" style="shape=parallelogram;perimeter=parallelogramPerimeter;whiteSpace=wrap;html=1;fixedSize=1;strokeColor=default;align=center;verticalAlign=middle;fontFamily=Times New Roman;fontSize=24;fontColor=default;fillColor=default;" parent="1" vertex="1">
          <mxGeometry x="230" y="560" width="260" height="60" as="geometry" />
        </mxCell>
        <mxCell id="Dy1CFo1pVVXyaczF-EVS-16" style="edgeStyle=orthogonalEdgeStyle;rounded=0;orthogonalLoop=1;jettySize=auto;html=1;exitX=0.5;exitY=1;exitDx=0;exitDy=0;fontFamily=Times New Roman;fontSize=24;fontColor=default;" parent="1" source="Dy1CFo1pVVXyaczF-EVS-7" edge="1">
          <mxGeometry relative="1" as="geometry">
            <mxPoint x="359.82352941176464" y="800" as="targetPoint" />
          </mxGeometry>
        </mxCell>
        <mxCell id="Dy1CFo1pVVXyaczF-EVS-7" value="int main(){" style="shape=parallelogram;perimeter=parallelogramPerimeter;whiteSpace=wrap;html=1;fixedSize=1;strokeColor=default;align=center;verticalAlign=middle;fontFamily=Times New Roman;fontSize=24;fontColor=default;fillColor=default;" parent="1" vertex="1">
          <mxGeometry x="270" y="680" width="180" height="60" as="geometry" />
        </mxCell>
        <mxCell id="Dy1CFo1pVVXyaczF-EVS-8" value="" style="endArrow=none;html=1;rounded=0;fontFamily=Times New Roman;fontSize=24;fontColor=default;" parent="1" edge="1">
          <mxGeometry width="50" height="50" relative="1" as="geometry">
            <mxPoint x="360" y="650" as="sourcePoint" />
            <mxPoint x="520" y="650" as="targetPoint" />
          </mxGeometry>
        </mxCell>
        <mxCell id="Dy1CFo1pVVXyaczF-EVS-9" value="" style="endArrow=none;html=1;rounded=0;fontFamily=Times New Roman;fontSize=24;fontColor=default;" parent="1" edge="1">
          <mxGeometry width="50" height="50" relative="1" as="geometry">
            <mxPoint x="520" y="750" as="sourcePoint" />
            <mxPoint x="520" y="580" as="targetPoint" />
          </mxGeometry>
        </mxCell>
        <mxCell id="Dy1CFo1pVVXyaczF-EVS-10" value="" style="endArrow=none;html=1;rounded=0;fontFamily=Times New Roman;fontSize=24;fontColor=default;" parent="1" edge="1">
          <mxGeometry width="50" height="50" relative="1" as="geometry">
            <mxPoint x="520" y="580" as="sourcePoint" />
            <mxPoint x="550" y="580" as="targetPoint" />
          </mxGeometry>
        </mxCell>
        <mxCell id="Dy1CFo1pVVXyaczF-EVS-11" value="#include &amp;lt;iostream&amp;gt;;" style="text;html=1;strokeColor=none;fillColor=none;align=center;verticalAlign=middle;whiteSpace=wrap;rounded=0;fontSize=24;fontFamily=Times New Roman;fontColor=default;" parent="1" vertex="1">
          <mxGeometry x="527" y="590" width="210" height="30" as="geometry" />
        </mxCell>
        <mxCell id="Dy1CFo1pVVXyaczF-EVS-12" value="#include &amp;lt;stdio.h&amp;gt;;" style="text;html=1;strokeColor=none;fillColor=none;align=center;verticalAlign=middle;whiteSpace=wrap;rounded=0;fontSize=24;fontFamily=Times New Roman;fontColor=default;" parent="1" vertex="1">
          <mxGeometry x="520" y="620" width="210" height="30" as="geometry" />
        </mxCell>
        <mxCell id="Dy1CFo1pVVXyaczF-EVS-13" value="int const N = 10; p = 3; q = 7;" style="text;html=1;strokeColor=none;fillColor=none;align=center;verticalAlign=middle;whiteSpace=wrap;rounded=0;fontSize=24;fontFamily=Times New Roman;fontColor=default;" parent="1" vertex="1">
          <mxGeometry x="527" y="650" width="300" height="30" as="geometry" />
        </mxCell>
        <mxCell id="Dy1CFo1pVVXyaczF-EVS-14" value="int a[N], temp;" style="text;html=1;strokeColor=none;fillColor=none;align=center;verticalAlign=middle;whiteSpace=wrap;rounded=0;fontSize=24;fontFamily=Times New Roman;fontColor=default;" parent="1" vertex="1">
          <mxGeometry x="460" y="680" width="290" height="30" as="geometry" />
        </mxCell>
        <mxCell id="Dy1CFo1pVVXyaczF-EVS-15" value="" style="endArrow=none;html=1;rounded=0;fontFamily=Times New Roman;fontSize=24;fontColor=default;" parent="1" edge="1">
          <mxGeometry width="50" height="50" relative="1" as="geometry">
            <mxPoint x="520" y="750" as="sourcePoint" />
            <mxPoint x="550" y="750" as="targetPoint" />
          </mxGeometry>
        </mxCell>
        <mxCell id="Dy1CFo1pVVXyaczF-EVS-22" style="edgeStyle=orthogonalEdgeStyle;rounded=0;orthogonalLoop=1;jettySize=auto;html=1;exitX=0.5;exitY=1;exitDx=0;exitDy=0;entryX=0.5;entryY=0;entryDx=0;entryDy=0;fontFamily=Times New Roman;fontSize=24;fontColor=default;" parent="1" source="Dy1CFo1pVVXyaczF-EVS-17" target="Dy1CFo1pVVXyaczF-EVS-20" edge="1">
          <mxGeometry relative="1" as="geometry" />
        </mxCell>
        <mxCell id="Dy1CFo1pVVXyaczF-EVS-26" style="edgeStyle=orthogonalEdgeStyle;rounded=0;orthogonalLoop=1;jettySize=auto;html=1;exitX=1;exitY=0.5;exitDx=0;exitDy=0;fontFamily=Times New Roman;fontSize=24;fontColor=default;entryX=0.5;entryY=0;entryDx=0;entryDy=0;entryPerimeter=0;" parent="1" source="Dy1CFo1pVVXyaczF-EVS-17" target="Dy1CFo1pVVXyaczF-EVS-29" edge="1">
          <mxGeometry relative="1" as="geometry">
            <mxPoint x="840" y="920" as="targetPoint" />
            <Array as="points">
              <mxPoint x="790" y="840" />
            </Array>
          </mxGeometry>
        </mxCell>
        <mxCell id="Dy1CFo1pVVXyaczF-EVS-17" value="for (int i = 0; i &amp;lt; n; i ++){" style="shape=hexagon;perimeter=hexagonPerimeter2;whiteSpace=wrap;html=1;fixedSize=1;strokeColor=default;align=center;verticalAlign=middle;fontFamily=Times New Roman;fontSize=24;fontColor=default;fillColor=default;" parent="1" vertex="1">
          <mxGeometry x="200" y="800" width="320" height="80" as="geometry" />
        </mxCell>
        <mxCell id="Dy1CFo1pVVXyaczF-EVS-24" style="edgeStyle=orthogonalEdgeStyle;rounded=0;orthogonalLoop=1;jettySize=auto;html=1;exitX=0.5;exitY=1;exitDx=0;exitDy=0;entryX=0;entryY=0.5;entryDx=0;entryDy=0;fontFamily=Times New Roman;fontSize=24;fontColor=default;" parent="1" source="Dy1CFo1pVVXyaczF-EVS-20" target="Dy1CFo1pVVXyaczF-EVS-17" edge="1">
          <mxGeometry relative="1" as="geometry">
            <Array as="points">
              <mxPoint x="360" y="1040" />
              <mxPoint x="160" y="1040" />
              <mxPoint x="160" y="840" />
            </Array>
          </mxGeometry>
        </mxCell>
        <mxCell id="Dy1CFo1pVVXyaczF-EVS-20" value="a[i] = rand() % 100 + 1;" style="rounded=0;whiteSpace=wrap;html=1;strokeColor=default;align=center;verticalAlign=middle;fontFamily=Times New Roman;fontSize=24;fontColor=default;fillColor=default;" parent="1" vertex="1">
          <mxGeometry x="200" y="930" width="320" height="60" as="geometry" />
        </mxCell>
        <mxCell id="Dy1CFo1pVVXyaczF-EVS-23" value="srand(time(NULL));" style="text;html=1;strokeColor=none;fillColor=none;align=center;verticalAlign=middle;whiteSpace=wrap;rounded=0;fontSize=24;fontFamily=Times New Roman;fontColor=default;" parent="1" vertex="1">
          <mxGeometry x="482" y="710" width="300" height="30" as="geometry" />
        </mxCell>
        <mxCell id="Dy1CFo1pVVXyaczF-EVS-25" value="}" style="text;html=1;align=center;verticalAlign=middle;resizable=0;points=[];autosize=1;strokeColor=none;fillColor=none;fontSize=24;fontFamily=Times New Roman;fontColor=default;" parent="1" vertex="1">
          <mxGeometry x="790" y="870" width="40" height="40" as="geometry" />
        </mxCell>
        <mxCell id="Dy1CFo1pVVXyaczF-EVS-27" value="True" style="text;html=1;align=center;verticalAlign=middle;resizable=0;points=[];autosize=1;strokeColor=none;fillColor=none;fontSize=24;fontFamily=Times New Roman;fontColor=default;" parent="1" vertex="1">
          <mxGeometry x="355" y="883" width="70" height="40" as="geometry" />
        </mxCell>
        <mxCell id="Dy1CFo1pVVXyaczF-EVS-28" value="False" style="text;html=1;align=center;verticalAlign=middle;resizable=0;points=[];autosize=1;strokeColor=none;fillColor=none;fontSize=24;fontFamily=Times New Roman;fontColor=default;" parent="1" vertex="1">
          <mxGeometry x="570" y="800" width="70" height="40" as="geometry" />
        </mxCell>
        <mxCell id="Dy1CFo1pVVXyaczF-EVS-32" style="edgeStyle=orthogonalEdgeStyle;rounded=0;orthogonalLoop=1;jettySize=auto;html=1;exitX=0.5;exitY=1;exitDx=0;exitDy=0;fontFamily=Times New Roman;fontSize=24;fontColor=default;" parent="1" source="Dy1CFo1pVVXyaczF-EVS-29" edge="1">
          <mxGeometry relative="1" as="geometry">
            <mxPoint x="790.4117647058824" y="1040" as="targetPoint" />
          </mxGeometry>
        </mxCell>
        <mxCell id="Dy1CFo1pVVXyaczF-EVS-36" style="edgeStyle=orthogonalEdgeStyle;rounded=0;orthogonalLoop=1;jettySize=auto;html=1;exitX=1;exitY=0.5;exitDx=0;exitDy=0;fontFamily=Times New Roman;fontSize=24;fontColor=default;entryX=0.5;entryY=0;entryDx=0;entryDy=0;" parent="1" source="Dy1CFo1pVVXyaczF-EVS-29" target="Dy1CFo1pVVXyaczF-EVS-38" edge="1">
          <mxGeometry relative="1" as="geometry">
            <mxPoint x="1200" y="1080" as="targetPoint" />
            <Array as="points">
              <mxPoint x="1205" y="960" />
            </Array>
          </mxGeometry>
        </mxCell>
        <mxCell id="Dy1CFo1pVVXyaczF-EVS-29" value="for (int i = 0; i &amp;lt; n; i ++){" style="shape=hexagon;perimeter=hexagonPerimeter2;whiteSpace=wrap;html=1;fixedSize=1;strokeColor=default;align=center;verticalAlign=middle;fontFamily=Times New Roman;fontSize=24;fontColor=default;fillColor=default;" parent="1" vertex="1">
          <mxGeometry x="640" y="930" width="300" height="60" as="geometry" />
        </mxCell>
        <mxCell id="Dy1CFo1pVVXyaczF-EVS-34" style="edgeStyle=orthogonalEdgeStyle;rounded=0;orthogonalLoop=1;jettySize=auto;html=1;exitX=0.5;exitY=1;exitDx=0;exitDy=0;entryX=0;entryY=0.5;entryDx=0;entryDy=0;fontFamily=Times New Roman;fontSize=24;fontColor=default;" parent="1" source="Dy1CFo1pVVXyaczF-EVS-33" target="Dy1CFo1pVVXyaczF-EVS-29" edge="1">
          <mxGeometry relative="1" as="geometry">
            <Array as="points">
              <mxPoint x="790" y="1160" />
              <mxPoint x="600" y="1160" />
              <mxPoint x="600" y="960" />
            </Array>
          </mxGeometry>
        </mxCell>
        <mxCell id="Dy1CFo1pVVXyaczF-EVS-33" value="cout &amp;lt;&amp;lt; a[i] &amp;lt;&amp;lt; &quot; &quot;;" style="shape=parallelogram;perimeter=parallelogramPerimeter;whiteSpace=wrap;html=1;fixedSize=1;strokeColor=default;align=center;verticalAlign=middle;fontFamily=Times New Roman;fontSize=24;fontColor=default;fillColor=default;" parent="1" vertex="1">
          <mxGeometry x="645" y="1040" width="290" height="60" as="geometry" />
        </mxCell>
        <mxCell id="Dy1CFo1pVVXyaczF-EVS-35" value="True" style="text;html=1;align=center;verticalAlign=middle;resizable=0;points=[];autosize=1;strokeColor=none;fillColor=none;fontSize=24;fontFamily=Times New Roman;fontColor=default;" parent="1" vertex="1">
          <mxGeometry x="790" y="990" width="70" height="40" as="geometry" />
        </mxCell>
        <mxCell id="Dy1CFo1pVVXyaczF-EVS-37" value="False" style="text;html=1;align=center;verticalAlign=middle;resizable=0;points=[];autosize=1;strokeColor=none;fillColor=none;fontSize=24;fontFamily=Times New Roman;fontColor=default;" parent="1" vertex="1">
          <mxGeometry x="950" y="910" width="70" height="40" as="geometry" />
        </mxCell>
        <mxCell id="Dy1CFo1pVVXyaczF-EVS-39" style="edgeStyle=orthogonalEdgeStyle;rounded=0;orthogonalLoop=1;jettySize=auto;html=1;exitX=0.5;exitY=1;exitDx=0;exitDy=0;fontFamily=Times New Roman;fontSize=24;fontColor=default;" parent="1" source="Dy1CFo1pVVXyaczF-EVS-38" edge="1">
          <mxGeometry relative="1" as="geometry">
            <mxPoint x="1205.3809523809523" y="1190" as="targetPoint" />
          </mxGeometry>
        </mxCell>
        <mxCell id="Dy1CFo1pVVXyaczF-EVS-38" value="cout &amp;lt;&amp;lt; endl;" style="shape=parallelogram;perimeter=parallelogramPerimeter;whiteSpace=wrap;html=1;fixedSize=1;strokeColor=default;align=center;verticalAlign=middle;fontFamily=Times New Roman;fontSize=24;fontColor=default;fillColor=default;" parent="1" vertex="1">
          <mxGeometry x="1040" y="1080" width="330" height="60" as="geometry" />
        </mxCell>
        <mxCell id="Dy1CFo1pVVXyaczF-EVS-41" style="edgeStyle=orthogonalEdgeStyle;rounded=0;orthogonalLoop=1;jettySize=auto;html=1;exitX=0.5;exitY=1;exitDx=0;exitDy=0;fontFamily=Times New Roman;fontSize=24;fontColor=default;" parent="1" source="Dy1CFo1pVVXyaczF-EVS-40" edge="1">
          <mxGeometry relative="1" as="geometry">
            <mxPoint x="1207.2857142857142" y="1320" as="targetPoint" />
          </mxGeometry>
        </mxCell>
        <mxCell id="Dy1CFo1pVVXyaczF-EVS-63" style="edgeStyle=orthogonalEdgeStyle;rounded=0;orthogonalLoop=1;jettySize=auto;html=1;exitX=1;exitY=0.5;exitDx=0;exitDy=0;fontFamily=Times New Roman;fontSize=24;fontColor=default;" parent="1" source="Dy1CFo1pVVXyaczF-EVS-40" edge="1">
          <mxGeometry relative="1" as="geometry">
            <mxPoint x="1720" y="1480.0000000000005" as="targetPoint" />
          </mxGeometry>
        </mxCell>
        <mxCell id="Dy1CFo1pVVXyaczF-EVS-40" value="for (int i = 0; i &amp;lt; (n / 2); i ++){" style="shape=hexagon;perimeter=hexagonPerimeter2;whiteSpace=wrap;html=1;fixedSize=1;strokeColor=default;align=center;verticalAlign=middle;fontFamily=Times New Roman;fontSize=24;fontColor=default;fillColor=default;" parent="1" vertex="1">
          <mxGeometry x="1040" y="1190" width="335" height="60" as="geometry" />
        </mxCell>
        <mxCell id="Dy1CFo1pVVXyaczF-EVS-42" value="True" style="text;html=1;align=center;verticalAlign=middle;resizable=0;points=[];autosize=1;strokeColor=none;fillColor=none;fontSize=24;fontFamily=Times New Roman;fontColor=default;" parent="1" vertex="1">
          <mxGeometry x="1200" y="1260" width="70" height="40" as="geometry" />
        </mxCell>
        <mxCell id="Dy1CFo1pVVXyaczF-EVS-44" style="edgeStyle=orthogonalEdgeStyle;rounded=0;orthogonalLoop=1;jettySize=auto;html=1;exitX=0;exitY=0.5;exitDx=0;exitDy=0;fontFamily=Times New Roman;fontSize=24;fontColor=default;" parent="1" source="Dy1CFo1pVVXyaczF-EVS-43" edge="1">
          <mxGeometry relative="1" as="geometry">
            <mxPoint x="960" y="1560" as="targetPoint" />
          </mxGeometry>
        </mxCell>
        <mxCell id="Dy1CFo1pVVXyaczF-EVS-43" value="if (i + 1 &amp;gt;= q) &amp;amp;&amp;amp; (n - i&amp;nbsp; &amp;lt;= p){" style="rhombus;whiteSpace=wrap;html=1;strokeColor=default;align=center;verticalAlign=middle;fontFamily=Times New Roman;fontSize=24;fontColor=default;fillColor=default;" parent="1" vertex="1">
          <mxGeometry x="1025.63" y="1320" width="363.75" height="210" as="geometry" />
        </mxCell>
        <mxCell id="Dy1CFo1pVVXyaczF-EVS-45" value="True" style="text;html=1;align=center;verticalAlign=middle;resizable=0;points=[];autosize=1;strokeColor=none;fillColor=none;fontSize=24;fontFamily=Times New Roman;fontColor=default;" parent="1" vertex="1">
          <mxGeometry x="966.25" y="1380" width="70" height="40" as="geometry" />
        </mxCell>
        <mxCell id="Dy1CFo1pVVXyaczF-EVS-47" value="False" style="text;html=1;align=center;verticalAlign=middle;resizable=0;points=[];autosize=1;strokeColor=none;fillColor=none;fontSize=24;fontFamily=Times New Roman;fontColor=default;" parent="1" vertex="1">
          <mxGeometry x="1400" y="1380" width="70" height="40" as="geometry" />
        </mxCell>
        <mxCell id="Dy1CFo1pVVXyaczF-EVS-49" style="edgeStyle=orthogonalEdgeStyle;rounded=0;orthogonalLoop=1;jettySize=auto;html=1;exitX=0.5;exitY=1;exitDx=0;exitDy=0;fontFamily=Times New Roman;fontSize=24;fontColor=default;" parent="1" source="Dy1CFo1pVVXyaczF-EVS-48" edge="1">
          <mxGeometry relative="1" as="geometry">
            <mxPoint x="960.3333333333335" y="1680" as="targetPoint" />
          </mxGeometry>
        </mxCell>
        <mxCell id="Dy1CFo1pVVXyaczF-EVS-48" value="temp = a[i];" style="rounded=0;whiteSpace=wrap;html=1;strokeColor=default;align=center;verticalAlign=middle;fontFamily=Times New Roman;fontSize=24;fontColor=default;fillColor=default;" parent="1" vertex="1">
          <mxGeometry x="860" y="1560" width="200" height="60" as="geometry" />
        </mxCell>
        <mxCell id="Dy1CFo1pVVXyaczF-EVS-51" style="edgeStyle=orthogonalEdgeStyle;rounded=0;orthogonalLoop=1;jettySize=auto;html=1;exitX=0.5;exitY=1;exitDx=0;exitDy=0;fontFamily=Times New Roman;fontSize=24;fontColor=default;" parent="1" source="Dy1CFo1pVVXyaczF-EVS-50" edge="1">
          <mxGeometry relative="1" as="geometry">
            <mxPoint x="960.3333333333335" y="1800" as="targetPoint" />
          </mxGeometry>
        </mxCell>
        <mxCell id="Dy1CFo1pVVXyaczF-EVS-50" value="a[i] = a[n - i - 1];" style="rounded=0;whiteSpace=wrap;html=1;strokeColor=default;align=center;verticalAlign=middle;fontFamily=Times New Roman;fontSize=24;fontColor=default;fillColor=default;" parent="1" vertex="1">
          <mxGeometry x="860" y="1680" width="200" height="60" as="geometry" />
        </mxCell>
        <mxCell id="Dy1CFo1pVVXyaczF-EVS-52" value="a[n - i - 1] = temp;" style="rounded=0;whiteSpace=wrap;html=1;strokeColor=default;align=center;verticalAlign=middle;fontFamily=Times New Roman;fontSize=24;fontColor=default;fillColor=default;" parent="1" vertex="1">
          <mxGeometry x="860" y="1800" width="200" height="60" as="geometry" />
        </mxCell>
        <mxCell id="Dy1CFo1pVVXyaczF-EVS-53" value="" style="endArrow=none;html=1;rounded=0;fontFamily=Times New Roman;fontSize=24;fontColor=default;" parent="1" edge="1">
          <mxGeometry width="50" height="50" relative="1" as="geometry">
            <mxPoint x="1390" y="1425" as="sourcePoint" />
            <mxPoint x="1480" y="1425" as="targetPoint" />
          </mxGeometry>
        </mxCell>
        <mxCell id="Dy1CFo1pVVXyaczF-EVS-55" value="" style="endArrow=none;html=1;rounded=0;fontFamily=Times New Roman;fontSize=24;fontColor=default;" parent="1" edge="1">
          <mxGeometry width="50" height="50" relative="1" as="geometry">
            <mxPoint x="960" y="1920" as="sourcePoint" />
            <mxPoint x="960" y="1860" as="targetPoint" />
          </mxGeometry>
        </mxCell>
        <mxCell id="Dy1CFo1pVVXyaczF-EVS-56" value="" style="endArrow=none;html=1;rounded=0;fontFamily=Times New Roman;fontSize=24;fontColor=default;" parent="1" edge="1">
          <mxGeometry width="50" height="50" relative="1" as="geometry">
            <mxPoint x="960" y="1920" as="sourcePoint" />
            <mxPoint x="1480" y="1920" as="targetPoint" />
            <Array as="points">
              <mxPoint x="1220" y="1920" />
            </Array>
          </mxGeometry>
        </mxCell>
        <mxCell id="Dy1CFo1pVVXyaczF-EVS-58" value="" style="endArrow=none;html=1;rounded=0;fontFamily=Times New Roman;fontSize=24;fontColor=default;" parent="1" edge="1">
          <mxGeometry width="50" height="50" relative="1" as="geometry">
            <mxPoint x="1220" y="2000" as="sourcePoint" />
            <mxPoint x="1220" y="1920" as="targetPoint" />
          </mxGeometry>
        </mxCell>
        <mxCell id="Dy1CFo1pVVXyaczF-EVS-59" value="" style="endArrow=none;html=1;rounded=0;fontFamily=Times New Roman;fontSize=24;fontColor=default;" parent="1" edge="1">
          <mxGeometry width="50" height="50" relative="1" as="geometry">
            <mxPoint x="680" y="2000" as="sourcePoint" />
            <mxPoint x="1220" y="2000" as="targetPoint" />
          </mxGeometry>
        </mxCell>
        <mxCell id="Dy1CFo1pVVXyaczF-EVS-60" value="" style="endArrow=none;html=1;rounded=0;fontFamily=Times New Roman;fontSize=24;fontColor=default;" parent="1" edge="1">
          <mxGeometry width="50" height="50" relative="1" as="geometry">
            <mxPoint x="680" y="2000" as="sourcePoint" />
            <mxPoint x="680" y="1220" as="targetPoint" />
          </mxGeometry>
        </mxCell>
        <mxCell id="Dy1CFo1pVVXyaczF-EVS-61" value="" style="endArrow=classic;html=1;rounded=0;fontFamily=Times New Roman;fontSize=24;fontColor=default;entryX=0;entryY=0.5;entryDx=0;entryDy=0;" parent="1" target="Dy1CFo1pVVXyaczF-EVS-40" edge="1">
          <mxGeometry width="50" height="50" relative="1" as="geometry">
            <mxPoint x="680" y="1220" as="sourcePoint" />
            <mxPoint x="730" y="1180" as="targetPoint" />
          </mxGeometry>
        </mxCell>
        <mxCell id="Dy1CFo1pVVXyaczF-EVS-62" value="}" style="text;html=1;align=center;verticalAlign=middle;resizable=0;points=[];autosize=1;strokeColor=none;fillColor=none;fontSize=24;fontFamily=Times New Roman;fontColor=default;" parent="1" vertex="1">
          <mxGeometry x="1221" y="1940" width="40" height="40" as="geometry" />
        </mxCell>
        <mxCell id="Dy1CFo1pVVXyaczF-EVS-64" value="False" style="text;html=1;align=center;verticalAlign=middle;resizable=0;points=[];autosize=1;strokeColor=none;fillColor=none;fontSize=24;fontFamily=Times New Roman;fontColor=default;" parent="1" vertex="1">
          <mxGeometry x="1500" y="1169" width="70" height="40" as="geometry" />
        </mxCell>
        <mxCell id="Dy1CFo1pVVXyaczF-EVS-65" value="cout &amp;lt;&amp;lt; endl;" style="shape=parallelogram;perimeter=parallelogramPerimeter;whiteSpace=wrap;html=1;fixedSize=1;strokeColor=default;align=center;verticalAlign=middle;fontFamily=Times New Roman;fontSize=24;fontColor=default;fillColor=default;" parent="1" vertex="1">
          <mxGeometry x="1550" y="1480" width="340" height="60" as="geometry" />
        </mxCell>
        <mxCell id="Dy1CFo1pVVXyaczF-EVS-68" style="edgeStyle=orthogonalEdgeStyle;rounded=0;orthogonalLoop=1;jettySize=auto;html=1;exitX=0.5;exitY=1;exitDx=0;exitDy=0;fontFamily=Times New Roman;fontSize=24;fontColor=default;" parent="1" source="Dy1CFo1pVVXyaczF-EVS-66" edge="1">
          <mxGeometry relative="1" as="geometry">
            <mxPoint x="1719.6363636363635" y="1720" as="targetPoint" />
          </mxGeometry>
        </mxCell>
        <mxCell id="Dy1CFo1pVVXyaczF-EVS-71" style="edgeStyle=orthogonalEdgeStyle;rounded=0;orthogonalLoop=1;jettySize=auto;html=1;exitX=1;exitY=0.5;exitDx=0;exitDy=0;fontFamily=Times New Roman;fontSize=24;fontColor=default;entryX=0.5;entryY=0;entryDx=0;entryDy=0;" parent="1" source="Dy1CFo1pVVXyaczF-EVS-66" target="Dy1CFo1pVVXyaczF-EVS-73" edge="1">
          <mxGeometry relative="1" as="geometry">
            <mxPoint x="2000" y="1750" as="targetPoint" />
          </mxGeometry>
        </mxCell>
        <mxCell id="Dy1CFo1pVVXyaczF-EVS-66" value="for (int i = 0; i &amp;lt; n; i ++){" style="shape=hexagon;perimeter=hexagonPerimeter2;whiteSpace=wrap;html=1;fixedSize=1;strokeColor=default;align=center;verticalAlign=middle;fontFamily=Times New Roman;fontSize=24;fontColor=default;fillColor=default;" parent="1" vertex="1">
          <mxGeometry x="1570" y="1600" width="300" height="60" as="geometry" />
        </mxCell>
        <mxCell id="Dy1CFo1pVVXyaczF-EVS-67" style="edgeStyle=orthogonalEdgeStyle;rounded=0;orthogonalLoop=1;jettySize=auto;html=1;exitX=0.5;exitY=1;exitDx=0;exitDy=0;entryX=0.5;entryY=0;entryDx=0;entryDy=0;fontFamily=Times New Roman;fontSize=24;fontColor=default;" parent="1" source="Dy1CFo1pVVXyaczF-EVS-65" target="Dy1CFo1pVVXyaczF-EVS-66" edge="1">
          <mxGeometry relative="1" as="geometry" />
        </mxCell>
        <mxCell id="Dy1CFo1pVVXyaczF-EVS-70" style="edgeStyle=orthogonalEdgeStyle;rounded=0;orthogonalLoop=1;jettySize=auto;html=1;exitX=0.5;exitY=1;exitDx=0;exitDy=0;entryX=0;entryY=0.5;entryDx=0;entryDy=0;fontFamily=Times New Roman;fontSize=24;fontColor=default;" parent="1" source="Dy1CFo1pVVXyaczF-EVS-69" target="Dy1CFo1pVVXyaczF-EVS-66" edge="1">
          <mxGeometry relative="1" as="geometry">
            <Array as="points">
              <mxPoint x="1720" y="1840" />
              <mxPoint x="1520" y="1840" />
              <mxPoint x="1520" y="1630" />
            </Array>
          </mxGeometry>
        </mxCell>
        <mxCell id="Dy1CFo1pVVXyaczF-EVS-69" value="cout &amp;lt;&amp;lt; a[i] &amp;lt;&amp;lt; &quot; &quot;;" style="shape=parallelogram;perimeter=parallelogramPerimeter;whiteSpace=wrap;html=1;fixedSize=1;strokeColor=default;align=center;verticalAlign=middle;fontFamily=Times New Roman;fontSize=24;fontColor=default;fillColor=default;" parent="1" vertex="1">
          <mxGeometry x="1575" y="1723.5" width="290" height="60" as="geometry" />
        </mxCell>
        <mxCell id="Dy1CFo1pVVXyaczF-EVS-73" value="return 0;" style="rounded=0;whiteSpace=wrap;html=1;strokeColor=default;align=center;verticalAlign=middle;fontFamily=Times New Roman;fontSize=24;fontColor=default;fillColor=default;" parent="1" vertex="1">
          <mxGeometry x="1900" y="1754" width="200" height="60" as="geometry" />
        </mxCell>
        <mxCell id="Dy1CFo1pVVXyaczF-EVS-74" value="}" style="text;html=1;align=center;verticalAlign=middle;resizable=0;points=[];autosize=1;strokeColor=none;fillColor=none;fontSize=24;fontFamily=Times New Roman;fontColor=default;" parent="1" vertex="1">
          <mxGeometry x="2100" y="1764" width="40" height="40" as="geometry" />
        </mxCell>
        <mxCell id="Dy1CFo1pVVXyaczF-EVS-75" value="}" style="text;html=1;align=center;verticalAlign=middle;resizable=0;points=[];autosize=1;strokeColor=none;fillColor=none;fontSize=24;fontFamily=Times New Roman;fontColor=default;" parent="1" vertex="1">
          <mxGeometry x="1730" y="1420" width="40" height="40" as="geometry" />
        </mxCell>
        <mxCell id="Dy1CFo1pVVXyaczF-EVS-76" value="}" style="text;html=1;align=center;verticalAlign=middle;resizable=0;points=[];autosize=1;strokeColor=none;fillColor=none;fontSize=24;fontFamily=Times New Roman;fontColor=default;" parent="1" vertex="1">
          <mxGeometry x="2000" y="1700" width="40" height="40" as="geometry" />
        </mxCell>
        <mxCell id="Dy1CFo1pVVXyaczF-EVS-77" value="}" style="text;html=1;align=center;verticalAlign=middle;resizable=0;points=[];autosize=1;strokeColor=none;fillColor=none;fontSize=24;fontFamily=Times New Roman;fontColor=default;" parent="1" vertex="1">
          <mxGeometry x="1210" y="1020" width="40" height="40" as="geometry" />
        </mxCell>
        <mxCell id="Dy1CFo1pVVXyaczF-EVS-78" value="" style="endArrow=none;html=1;rounded=0;fontFamily=Times New Roman;fontSize=24;fontColor=default;" parent="1" edge="1">
          <mxGeometry width="50" height="50" relative="1" as="geometry">
            <mxPoint x="1480" y="1920" as="sourcePoint" />
            <mxPoint x="1480" y="1425" as="targetPoint" />
          </mxGeometry>
        </mxCell>
        <mxCell id="w96GpyeDBhRhtK_2cfo5-1" value="True" style="text;html=1;align=center;verticalAlign=middle;resizable=0;points=[];autosize=1;strokeColor=none;fillColor=none;fontSize=24;fontFamily=Times New Roman;fontColor=default;" vertex="1" parent="1">
          <mxGeometry x="1715" y="1670" width="70" height="40" as="geometry" />
        </mxCell>
        <mxCell id="w96GpyeDBhRhtK_2cfo5-2" value="False" style="text;html=1;align=center;verticalAlign=middle;resizable=0;points=[];autosize=1;strokeColor=none;fillColor=none;fontSize=24;fontFamily=Times New Roman;fontColor=default;" vertex="1" parent="1">
          <mxGeometry x="1890" y="1580" width="70" height="40" as="geometry" />
        </mxCell>
      </root>
    </mxGraphModel>
  </diagram>
</mxfile>
